{
  "accessors": [
    {
      "bufferView": 2,
      "componentType": 5126,
      "count": 556,
      "max": [
        0.66039198637008667,
        1.4029510021209717,
        4.1814908981323242
      ],
      "min": [
        -1.1824920177459717,
        -0.43993198871612549,
        -1.7827379703521729
      ],
      "type": "VEC3"
    },
    {
      "bufferView": 2,
      "byteOffset": 6672,
      "componentType": 5126,
      "count": 556,
      "max": [
        0.96592891216278076,
        0.96592891216278076,
        0.69096195697784424
      ],
      "min": [
        -0.96592891216278076,
        -0.96592891216278076,
        -1
      ],
      "type": "VEC3"
    },
    {
      "bufferView": 3,
      "componentType": 5126,
      "count": 556,
      "max": [
        0.9664803147315979,
        0.9664803147315979,
        0.99975806474685669,
        1
      ],
      "min": [
        -0.96592891216278076,
        -0.9664800763130188,
        -0.99975806474685669,
        1
      ],
      "type": "VEC4"
    },
    {
      "bufferView": 1,
      "componentType": 5126,
      "count": 556,
      "max": [
        0.97717702388763428,
        0.95428502559661865
      ],
      "min": [
        0.022823000326752663,
        0.023912999778985977
      ],
      "type": "VEC2"
    },
    {
      "bufferView": 0,
      "componentType": 5125,
      "count": 846,
      "max": [
        555
      ],
      "min": [
        0
      ],
      "type": "SCALAR"
    },
    {
      "bufferView": 2,
      "byteOffset": 13344,
      "componentType": 5126,
      "count": 92,
      "max": [
        0.62563598155975342,
        1.2494020462036133,
        4.3394179344177246
      ],
      "min": [
        -0.58648198843002319,
        -0.2863830029964447,
        -0.74823802709579468
      ],
      "type": "VEC3"
    },
    {
      "bufferView": 2,
      "byteOffset": 14448,
      "componentType": 5126,
      "count": 92,
      "max": [
        0.96592831611633301,
        0.94328415393829346,
        1
      ],
      "min": [
        -0.94328415393829346,
        -0.94328415393829346,
        -0.0039000867400318384
      ],
      "type": "VEC3"
    },
    {
      "bufferView": 3,
      "byteOffset": 8896,
      "componentType": 5126,
      "count": 92,
      "max": [
        0.96715688705444336,
        0.96715593338012695,
        0.029827779158949852,
        1
      ],
      "min": [
        -0.70687472820281982,
        -0.96715688705444336,
        -0.029815150424838066,
        1
      ],
      "type": "VEC4"
    },
    {
      "bufferView": 1,
      "byteOffset": 4448,
      "componentType": 5126,
      "count": 92,
      "max": [
        0.84706598520278931,
        0.96632099151611328
      ],
      "min": [
        0.025939000770449638,
        0.023912999778985977
      ],
      "type": "VEC2"
    },
    {
      "bufferView": 0,
      "byteOffset": 3384,
      "componentType": 5125,
      "count": 150,
      "max": [
        91
      ],
      "min": [
        0
      ],
      "type": "SCALAR"
    }
  ],
  "asset": {
    "extras": {
      "author": "kenny_pizza (https://sketchfab.com/kenny_pizza)",
      "license": "CC-BY-4.0 (http://creativecommons.org/licenses/by/4.0/)",
      "source": "https://sketchfab.com/3d-models/low-poly-beer-bottle-d6a3307927254388a06b8d53aa847fcd",
      "title": "Low Poly Beer Bottle"
    },
    "generator": "Sketchfab-5.47.0",
    "version": "2.0"
  },
  "bufferViews": [
    {
      "buffer": 0,
      "byteLength": 3984,
      "byteOffset": 0,
      "name": "floatBufferViews",
      "target": 34963
    },
    {
      "buffer": 0,
      "byteLength": 5184,
      "byteOffset": 3984,
      "byteStride": 8,
      "name": "floatBufferViews",
      "target": 34962
    },
    {
      "buffer": 0,
      "byteLength": 15552,
      "byteOffset": 9168,
      "byteStride": 12,
      "name": "floatBufferViews",
      "target": 34962
    },
    {
      "buffer": 0,
      "byteLength": 10368,
      "byteOffset": 24720,
      "byteStride": 16,
      "name": "floatBufferViews",
      "target": 34962
    }
  ],
  "buffers": [
    {
      "byteLength": 35088,
      "uri": "scene.bin"
    }
  ],
  "materials": [
    {
      "alphaMode": "BLEND",
      "doubleSided": true,
      "emissiveFactor": [
        0,
        0,
        0
      ],
      "name": "BottleColor",
      "pbrMetallicRoughness": {
        "baseColorFactor": [
          0.64000000000000001,
          0.17124700000000001,
          0.030172999999999998,
          0.95903201220000001
        ],
        "metallicFactor": 0,
        "roughnessFactor": 0.81535823169999999
      }
    },
    {
      "doubleSided": true,
      "emissiveFactor": [
        0,
        0,
        0
      ],
      "name": "LabelColor",
      "pbrMetallicRoughness": {
        "baseColorFactor": [
          0.35869800000000002,
          0.64000000000000001,
          0.15062500000000001,
          1
        ],
        "metallicFactor": 0,
        "roughnessFactor": 0.35194359760000005
      }
    }
  ],
  "meshes": [
    {
      "primitives": [
        {
          "attributes": {
            "NORMAL": 1,
            "POSITION": 0,
            "TANGENT": 2,
            "TEXCOORD_0": 3
          },
          "indices": 4,
          "material": 0,
          "mode": 4
        }
      ]
    },
    {
      "primitives": [
        {
          "attributes": {
            "NORMAL": 6,
            "POSITION": 5,
            "TANGENT": 7,
            "TEXCOORD_0": 8
          },
          "indices": 9,
          "material": 1,
          "mode": 4
        }
      ]
    }
  ],
  "nodes": [
    {
      "children": [
        1
      ],
      "name": "RootNode (gltf orientation matrix)",
      "rotation": [
        -0.70710678118654746,
        -0,
        -0,
        0.70710678118654757
      ]
    },
    {
      "children": [
        2
      ],
      "name": "RootNode (model correction matrix)"
    },
    {
      "children": [
        3,
        4
      ],
      "name": "beerBottle.obj.cleaner.materialmerger.gles"
    },
    {
      "mesh": 0,
      "name": ""
    },
    {
      "mesh": 1,
      "name": ""
    }
  ],
  "scene": 0,
  "scenes": [
    {
      "name": "OSG_Scene",
      "nodes": [
        0
      ]
    }
  ]
}

