{
  "accessors": [
    {
      "bufferView": 1,
      "componentType": 5126,
      "count": 316,
      "max": [
        0.33387100696563721,
        -0.88924002647399902,
        0.18103000521659851
      ],
      "min": [
        -0.23363800346851349,
        -1.5246900320053101,
        -0.020948000252246857
      ],
      "type": "VEC3"
    },
    {
      "bufferView": 1,
      "byteOffset": 3792,
      "componentType": 5126,
      "count": 316,
      "max": [
        0.9982534646987915,
        0.66541945934295654,
        0.98523050546646118
      ],
      "min": [
        -0.98860543966293335,
        -0.73569363355636597,
        -0.99757635593414307
      ],
      "type": "VEC3"
    },
    {
      "bufferView": 0,
      "componentType": 5125,
      "count": 318,
      "max": [
        315
      ],
      "min": [
        0
      ],
      "type": "SCALAR"
    },
    {
      "bufferView": 1,
      "byteOffset": 7584,
      "componentType": 5126,
      "count": 8655,
      "max": [
        0.49578100442886353,
        1.3937339782714844,
        1.0985430479049683
      ],
      "min": [
        -0.70805197954177856,
        -1.4074440002441406,
        -0.83770602941513062
      ],
      "type": "VEC3"
    },
    {
      "bufferView": 1,
      "byteOffset": 111444,
      "componentType": 5126,
      "count": 8655,
      "max": [
        0.99924784898757935,
        0.99956637620925903,
        0.99979919195175171
      ],
      "min": [
        -0.99965769052505493,
        -0.99491751194000244,
        -0.99990510940551758
      ],
      "type": "VEC3"
    },
    {
      "bufferView": 0,
      "byteOffset": 1272,
      "componentType": 5125,
      "count": 8661,
      "max": [
        8654
      ],
      "min": [
        0
      ],
      "type": "SCALAR"
    }
  ],
  "asset": {
    "extras": {
      "author": "Jérémie Louvetz (https://sketchfab.com/jeremielouvetz)",
      "license": "CC-BY-NC-4.0 (http://creativecommons.org/licenses/by-nc/4.0/)",
      "source": "https://sketchfab.com/models/2aeeb8958bc64240962b093705abffdf",
      "title": "Asian Elephant"
    },
    "generator": "Sketchfab-3.18.2",
    "version": "2.0"
  },
  "bufferViews": [
    {
      "buffer": 0,
      "byteLength": 35916,
      "byteOffset": 0,
      "name": "floatBufferViews",
      "target": 34963
    },
    {
      "buffer": 0,
      "byteLength": 215304,
      "byteOffset": 35916,
      "byteStride": 12,
      "name": "floatBufferViews",
      "target": 34962
    }
  ],
  "buffers": [
    {
      "byteLength": 251220,
      "uri": "scene.bin"
    }
  ],
  "materials": [
    {
      "doubleSided": true,
      "name": "Material",
      "pbrMetallicRoughness": {
        "baseColorFactor": [
          0.95597335319999999,
          0.99110209709999997,
          0.98225055029999997,
          1
        ],
        "metallicFactor": 0,
        "roughnessFactor": 0.5
      }
    },
    {
      "doubleSided": true,
      "name": "material0.001",
      "pbrMetallicRoughness": {
        "baseColorFactor": [
          0.1946178304,
          0.18447499449999999,
          0.18782077229999999,
          1
        ],
        "metallicFactor": 0,
        "roughnessFactor": 0.5
      }
    }
  ],
  "meshes": [
    {
      "primitives": [
        {
          "attributes": {
            "NORMAL": 1,
            "POSITION": 0
          },
          "indices": 2,
          "material": 0,
          "mode": 4
        }
      ]
    },
    {
      "primitives": [
        {
          "attributes": {
            "NORMAL": 4,
            "POSITION": 3
          },
          "indices": 5,
          "material": 1,
          "mode": 4
        }
      ]
    }
  ],
  "nodes": [
    {
      "children": [
        1
      ],
      "name": "RootNode (gltf orientation matrix)",
      "rotation": [
        -0.70710678118654746,
        -0,
        -0,
        0.70710678118654757
      ]
    },
    {
      "children": [
        2
      ],
      "name": "RootNode (model correction matrix)"
    },
    {
      "children": [
        3,
        4
      ],
      "name": "elephant_asie_sketchfab.obj.cleaner"
    },
    {
      "mesh": 0,
      "name": ""
    },
    {
      "mesh": 1,
      "name": ""
    }
  ],
  "scene": 0,
  "scenes": [
    {
      "name": "OSG_Scene",
      "nodes": [
        0
      ]
    }
  ]
}

