{
  "accessors": [
    {
      "bufferView": 2,
      "componentType": 5126,
      "count": 2395,
      "max": [
        0.51689338684082031,
        0.45174500346183777,
        1.4950807094573975
      ],
      "min": [
        -0.79726296663284302,
        -0.48734870553016663,
        -1.2645256519317627
      ],
      "type": "VEC3"
    },
    {
      "bufferView": 2,
      "byteOffset": 28740,
      "componentType": 5126,
      "count": 2395,
      "max": [
        0.99999153614044189,
        1,
        0.99965542554855347
      ],
      "min": [
        -0.99952107667922974,
        -1,
        -0.99902063608169556
      ],
      "type": "VEC3"
    },
    {
      "bufferView": 1,
      "componentType": 5126,
      "count": 2395,
      "max": [
        0.99524074792861938,
        0.98732322454452515
      ],
      "min": [
        0.0091262692585587502,
        0.034583687782287598
      ],
      "type": "VEC2"
    },
    {
      "bufferView": 0,
      "componentType": 5125,
      "count": 3762,
      "max": [
        2394
      ],
      "min": [
        0
      ],
      "type": "SCALAR"
    }
  ],
  "asset": {
    "extras": {
      "author": "Tiberiu Uncu (https://sketchfab.com/pangolinbc)",
      "license": "CC-BY-4.0 (http://creativecommons.org/licenses/by/4.0/)",
      "source": "https://sketchfab.com/3d-models/low-poly-angry-looking-hippo-451daef26695425ab1b751f503f182e6",
      "title": "Low poly angry looking hippo"
    },
    "generator": "Sketchfab-8.91.0",
    "version": "2.0"
  },
  "bufferViews": [
    {
      "buffer": 0,
      "byteLength": 15048,
      "byteOffset": 0,
      "name": "floatBufferViews",
      "target": 34963
    },
    {
      "buffer": 0,
      "byteLength": 19160,
      "byteOffset": 15048,
      "byteStride": 8,
      "name": "floatBufferViews",
      "target": 34962
    },
    {
      "buffer": 0,
      "byteLength": 57480,
      "byteOffset": 34208,
      "byteStride": 12,
      "name": "floatBufferViews",
      "target": 34962
    }
  ],
  "buffers": [
    {
      "byteLength": 91688,
      "uri": "scene.bin"
    }
  ],
  "images": [
    {
      "uri": "textures/Material.001_baseColor.png"
    }
  ],
  "materials": [
    {
      "doubleSided": true,
      "emissiveFactor": [
        0,
        0,
        0
      ],
      "name": "Material.001",
      "pbrMetallicRoughness": {
        "baseColorFactor": [
          1,
          1,
          1,
          1
        ],
        "baseColorTexture": {
          "index": 0,
          "texCoord": 0
        },
        "metallicFactor": 0,
        "roughnessFactor": 0.5
      }
    }
  ],
  "meshes": [
    {
      "primitives": [
        {
          "attributes": {
            "NORMAL": 1,
            "POSITION": 0,
            "TEXCOORD_0": 2
          },
          "indices": 3,
          "material": 0,
          "mode": 4
        }
      ]
    }
  ],
  "nodes": [
    {
      "children": [
        1
      ],
      "name": "RootNode (gltf orientation matrix)",
      "rotation": [
        -0.70710678118654746,
        -0,
        -0,
        0.70710678118654757
      ]
    },
    {
      "children": [
        2
      ],
      "name": "RootNode (model correction matrix)"
    },
    {
      "children": [
        3
      ],
      "name": "root"
    },
    {
      "children": [
        4
      ],
      "matrix": [
        1,
        0,
        0,
        0,
        0,
        2.2204460492503131e-16,
        1,
        0,
        0,
        -1,
        2.2204460492503131e-16,
        0,
        0,
        0,
        0,
        1
      ],
      "name": "GLTF_SceneRootNode"
    },
    {
      "children": [
        5
      ],
      "matrix": [
        8.4293694802006769e-08,
        -0.99999999999999656,
        -0,
        0,
        0.99999999999999656,
        8.4293694802006769e-08,
        0,
        0,
        0,
        -0,
        1,
        0,
        4.7573819756507874e-05,
        -0.1166551411151886,
        -0.17476314306259155,
        1
      ],
      "name": "hippo_2"
    },
    {
      "mesh": 0,
      "name": ""
    }
  ],
  "samplers": [
    {
      "magFilter": 9729,
      "minFilter": 9987,
      "wrapS": 10497,
      "wrapT": 10497
    }
  ],
  "scene": 0,
  "scenes": [
    {
      "name": "OSG_Scene",
      "nodes": [
        0
      ]
    }
  ],
  "textures": [
    {
      "sampler": 0,
      "source": 0
    }
  ]
}

